<?xml version="1.0" standalone="no"?>
<!DOCTYPE svg PUBLIC "-//W3C//DTD SVG 20010904//EN"
 "http://www.w3.org/TR/2001/REC-SVG-20010904/DTD/svg10.dtd">
<svg version="1.0" xmlns="http://www.w3.org/2000/svg"
 width="557.000000pt" height="557.000000pt" viewBox="0 0 557.000000 557.000000"
 preserveAspectRatio="xMidYMid meet">
<metadata>
Created by potrace 1.11, written by Peter Selinger 2001-2013
</metadata>
<g transform="translate(0.000000,557.000000) scale(0.100000,-0.100000)"
fill="#000000" stroke="none">
<path d="M3678 4960 c-229 -39 -514 -200 -796 -449 l-93 -83 -57 54 c-198 188
-470 360 -687 435 -107 36 -114 38 -250 38 -137 0 -141 -1 -208 -32 -271 -128
-371 -559 -261 -1128 13 -71 27 -144 30 -161 l6 -30 -78 -24 c-114 -33 -336
-124 -434 -177 -258 -139 -423 -298 -491 -472 -32 -80 -32 -213 0 -294 55
-141 181 -282 355 -399 122 -81 342 -187 505 -243 74 -25 137 -47 139 -49 2
-2 -6 -47 -17 -99 -112 -516 -63 -927 133 -1122 94 -93 175 -124 326 -125 265
0 633 186 941 477 l56 53 73 -66 c471 -425 912 -572 1176 -393 81 55 141 140
186 263 46 125 58 199 65 377 6 189 -5 331 -43 518 -14 68 -21 127 -17 131 4
4 28 12 53 19 81 23 273 101 385 157 328 165 527 369 566 579 44 240 -144 488
-521 689 -96 51 -319 142 -427 175 -40 12 -73 24 -73 27 0 2 11 60 24 127 39
193 49 310 43 520 -4 163 -8 206 -30 288 -85 322 -286 468 -579 419z m-1706
-241 c185 -61 360 -169 581 -358 48 -41 87 -78 87 -83 0 -4 -49 -65 -110 -136
-60 -70 -154 -186 -208 -257 l-98 -130 -115 -12 c-124 -14 -454 -67 -506 -82
-31 -9 -33 -8 -43 27 -6 20 -22 102 -37 182 -34 191 -39 470 -9 595 64 273
189 343 458 254z m1933 15 c57 -29 117 -121 143 -220 54 -198 51 -440 -9 -744
-12 -58 -23 -108 -25 -111 -2 -3 -68 7 -146 22 -79 16 -226 39 -327 51 l-184
23 -90 120 c-97 128 -190 243 -275 339 l-53 59 38 40 c59 60 228 194 335 264
243 160 471 220 593 157z m-1046 -681 c66 -74 220 -265 221 -273 0 -3 -130 -5
-290 -5 -159 0 -290 1 -290 3 0 13 279 342 290 342 5 0 36 -30 69 -67z m284
-489 l97 -6 63 -97 c98 -149 220 -358 309 -527 l80 -155 -96 -179 c-106 -199
-198 -356 -291 -501 l-62 -96 -93 -6 c-120 -9 -634 -9 -733 -1 l-77 7 -78 121
c-100 154 -200 325 -297 510 l-77 146 80 153 c98 186 160 294 263 457 121 192
85 170 300 180 180 8 417 5 612 -6z m-1075 -41 c-1 -5 -40 -69 -85 -144 -45
-76 -108 -185 -139 -243 -32 -59 -61 -103 -65 -99 -17 18 -149 379 -149 408 0
12 94 33 310 69 101 17 133 19 128 9z m1557 -8 c96 -14 297 -52 322 -60 8 -3
2 -33 -21 -102 -39 -115 -114 -305 -124 -315 -4 -4 -35 43 -70 106 -34 62 -98
173 -142 246 -44 73 -80 134 -80 136 0 6 6 5 115 -11z m-2152 -255 c26 -77 79
-216 118 -310 l72 -171 -46 -107 c-60 -140 -127 -316 -162 -422 -15 -47 -31
-89 -35 -94 -18 -19 -339 107 -485 191 -169 97 -317 229 -366 329 -33 67 -33
151 0 219 55 112 234 255 448 358 103 49 361 145 393 146 10 1 29 -41 63 -139z
m2828 94 c161 -54 354 -145 464 -219 176 -117 283 -259 273 -364 -7 -72 -45
-138 -128 -221 -94 -94 -198 -164 -365 -246 -108 -52 -347 -144 -375 -144 -4
0 -13 21 -20 48 -21 73 -101 283 -169 436 l-61 140 59 140 c68 159 117 288
151 391 23 71 29 85 34 85 2 0 64 -20 137 -46z m-437 -959 c75 -191 107 -283
97 -289 -22 -14 -438 -82 -447 -73 -3 2 39 79 93 169 54 90 118 203 143 251
25 48 47 87 50 87 3 0 32 -65 64 -145z m-2019 29 c31 -59 95 -170 142 -248 47
-78 87 -144 89 -147 6 -11 -425 54 -448 67 -9 6 13 78 71 231 60 157 79 203
85 203 2 0 30 -48 61 -106z m2203 -621 c35 -178 44 -270 44 -428 -1 -286 -65
-480 -180 -543 -147 -81 -422 9 -725 236 -101 77 -237 198 -237 213 0 6 34 49
76 97 42 48 134 164 204 257 l128 170 189 23 c103 13 249 36 323 51 74 16 140
29 146 30 7 0 20 -44 32 -106z m-2358 73 c69 -14 206 -34 305 -46 99 -12 194
-23 210 -26 24 -4 44 -24 105 -107 64 -87 183 -233 309 -379 33 -38 33 -39 15
-60 -11 -11 -62 -56 -114 -100 -392 -329 -773 -444 -915 -276 -37 44 -70 117
-92 203 -21 86 -25 417 -5 535 12 72 53 280 56 280 0 0 57 -11 126 -24z m1391
-101 c-79 -106 -119 -157 -189 -240 -46 -55 -88 -101 -92 -103 -10 -4 -300
335 -300 351 0 1 132 2 294 2 195 0 292 -3 287 -10z"/>
<path d="M2643 3200 c-66 -24 -127 -65 -180 -123 -169 -183 -143 -478 57 -636
106 -84 264 -113 397 -73 385 117 421 642 56 815 -62 29 -78 32 -173 34 -82 2
-116 -2 -157 -17z"/>
</g>
</svg>
